<?xml version="1.0" encoding="UTF-8" standalone="no"?>
<!-- Created with Inkscape (http://www.inkscape.org/) -->

<svg
   xmlns:dc="http://purl.org/dc/elements/1.1/"
   xmlns:cc="http://creativecommons.org/ns#"
   xmlns:rdf="http://www.w3.org/1999/02/22-rdf-syntax-ns#"
   xmlns:svg="http://www.w3.org/2000/svg"
   xmlns="http://www.w3.org/2000/svg"
   xmlns:sodipodi="http://sodipodi.sourceforge.net/DTD/sodipodi-0.dtd"
   xmlns:inkscape="http://www.inkscape.org/namespaces/inkscape"
   width="210mm"
   height="297mm"
   id="svg2"
   version="1.1"
   inkscape:version="0.48.2 r9819"
   sodipodi:docname="Neues Dokument 1">
  <defs
     id="defs4">
    <marker
       inkscape:stockid="TriangleOutL"
       orient="auto"
       refY="0.0"
       refX="0.0"
       id="TriangleOutL"
       style="overflow:visible">
      <path
         id="path3919"
         d="M 5.77,0.0 L -2.88,5.0 L -2.88,-5.0 L 5.77,0.0 z "
         style="fill-rule:evenodd;stroke:#000000;stroke-width:1.0pt;marker-start:none"
         transform="scale(0.8)" />
    </marker>
  </defs>
  <sodipodi:namedview
     id="base"
     pagecolor="#ffffff"
     bordercolor="#666666"
     borderopacity="1.0"
     inkscape:pageopacity="0.0"
     inkscape:pageshadow="2"
     inkscape:zoom="0.7"
     inkscape:cx="193.95176"
     inkscape:cy="759.00216"
     inkscape:document-units="px"
     inkscape:current-layer="layer1"
     showgrid="false"
     inkscape:window-width="1791"
     inkscape:window-height="912"
     inkscape:window-x="0"
     inkscape:window-y="0"
     inkscape:window-maximized="0" />
  <metadata
     id="metadata7">
    <rdf:RDF>
      <cc:Work
         rdf:about="">
        <dc:format>image/svg+xml</dc:format>
        <dc:type
           rdf:resource="http://purl.org/dc/dcmitype/StillImage" />
        <dc:title></dc:title>
      </cc:Work>
    </rdf:RDF>
  </metadata>
  <g
     inkscape:label="Ebene 1"
     inkscape:groupmode="layer"
     id="layer1">
    <text
       xml:space="preserve"
       style="font-size:81.93270111px;font-style:normal;font-weight:normal;line-height:125%;letter-spacing:0px;word-spacing:0px;fill:#f2940f;fill-opacity:0.94117647;stroke:none;font-family:Times New Roman;-inkscape-font-specification:Times New Roman"
       x="451.6106"
       y="299.3277"
       id="text2989"
       sodipodi:linespacing="125%"
       transform="scale(1.0216676,0.97879194)"
       inkscape:export-filename="/Users/tkurz/Documents/development/software/squebi/squebi/img/hint3.png"
       inkscape:export-xdpi="90"
       inkscape:export-ydpi="90"><tspan
         sodipodi:role="line"
         id="tspan2991"
         x="142.12262"
         y="299.3277"
         style="font-style:normal;font-variant:normal;font-weight:bold;font-stretch:normal;fill:#f2940f;fill-opacity:0.94117647000000004;font-family:Throw My Hands Up in the Air;-inkscape-font-specification:Throw My Hands Up in the Air Bold;text-anchor:middle;text-align:center">Insert your query</tspan><tspan
         sodipodi:role="line"
         x="142.12262"
         y="401.74356"
         style="font-style:normal;font-variant:normal;font-weight:bold;font-stretch:normal;fill:#f2940f;fill-opacity:0.94117647000000004;font-family:Throw My Hands Up in the Air;-inkscape-font-specification:Throw My Hands Up in the Air Bold;text-anchor:middle;text-align:center"
         id="tspan4233">here. Use automatic</tspan><tspan
         sodipodi:role="line"
         x="142.12262"
         y="504.15945"
         style="font-style:normal;font-variant:normal;font-weight:bold;font-stretch:normal;fill:#f2940f;fill-opacity:0.94117647000000004;font-family:Throw My Hands Up in the Air;-inkscape-font-specification:Throw My Hands Up in the Air Bold;text-anchor:middle;text-align:center"
         id="tspan4237">prefix substitution</tspan></text>
    <path
       style="fill:#f2940f;fill-opacity:0.94117647;stroke:#00ff00;stroke-width:0;stroke-linecap:round;stroke-miterlimit:4;stroke-opacity:1;stroke-dasharray:none"
       id="path4229"
       d="m 871.47215,257.16301 c 9.43308,-9.78739 21.10947,-16.86239 32.48811,-23.80788 2.03537,-1.17579 4.06157,-2.37033 6.1061,-3.52737 6.34716,-3.592 3.09765,-1.70522 8.50766,-4.55536 0.63577,-0.3349 2.07737,-0.37097 1.88971,-1.04335 -3.5699,-12.79168 -1.7342,-11.73945 -8.80848,-12.00183 -11.13288,-1.24967 -21.80598,-4.34005 -32.38021,-7.57795 -8.35705,-2.38945 -16.51424,-5.32647 -24.80737,-7.8917 -2.58101,-0.83836 -1.37143,-0.43302 -3.63154,-1.20859 0,0 4.89705,11.28736 4.89705,11.28736 l 0,0 c 2.22924,0.64351 1.0352,0.3016 3.5829,1.02344 8.28186,2.22376 16.39955,4.92418 24.58629,7.4267 10.70703,3.25496 21.63827,5.77254 32.67911,7.91265 5.31158,1.89255 6.58314,3.07898 -1.96753,-9.63339 -0.36597,-0.54413 -1.0595,0.91546 -1.63583,1.30195 -4.65157,3.11942 -9.65674,5.64088 -14.29362,8.78906 -11.3781,7.16194 -22.96423,14.17321 -33.39186,22.8558 0,0 6.17951,10.65046 6.17951,10.65046 z"
       inkscape:connector-curvature="0"
       inkscape:export-filename="/Users/tkurz/Documents/development/software/squebi/squebi/img/hint3.png"
       inkscape:export-xdpi="90"
       inkscape:export-ydpi="90" />
    <path
       style="fill:#f2940f;fill-opacity:0.94117647;stroke:#00ff00;stroke-width:0;stroke-linecap:round;stroke-miterlimit:4;stroke-opacity:1;stroke-dasharray:none"
       id="path4231"
       d="m 869.7826,219.56751 c -23.44776,5.27193 -46.88553,10.56643 -70.24481,16.32969 -11.6532,2.82951 -23.20202,6.16842 -34.58086,10.1381 0,0 6.38571,9.65304 6.38571,9.65304 l 0,0 c 10.94578,-4.60471 22.14958,-8.43711 33.54395,-11.49026 4.69037,-1.23919 9.36629,-2.55026 14.07111,-3.71763 18.93705,-4.69877 38.12184,-8.46938 57.40911,-10.37202 0,0 -6.58421,-10.54092 -6.58421,-10.54092 z"
       inkscape:connector-curvature="0"
       inkscape:export-filename="/Users/tkurz/Documents/development/software/squebi/squebi/img/hint3.png"
       inkscape:export-xdpi="90"
       inkscape:export-ydpi="90" />
  </g>
</svg>
